<?xml version="1.0" encoding="UTF-8" standalone="no"?>
<!-- Created with Inkscape (http://www.inkscape.org/) -->

<svg
   width="200"
   height="200"
   viewBox="0 0 52.916664 52.916664"
   version="1.1"
   id="svg5"
   inkscape:version="1.1.2 (1:1.1+202202050950+0a00cf5339)"
   sodipodi:docname="icon_matrix_foreground.svg"
   xmlns:inkscape="http://www.inkscape.org/namespaces/inkscape"
   xmlns:sodipodi="http://sodipodi.sourceforge.net/DTD/sodipodi-0.dtd"
   xmlns="http://www.w3.org/2000/svg"
   xmlns:svg="http://www.w3.org/2000/svg">
  <sodipodi:namedview
     id="namedview7"
     pagecolor="#ffffff"
     bordercolor="#666666"
     borderopacity="1.0"
     inkscape:pageshadow="2"
     inkscape:pageopacity="0.0"
     inkscape:pagecheckerboard="true"
     inkscape:document-units="px"
     showgrid="false"
     inkscape:zoom="0.66368547"
     inkscape:cx="-47.462242"
     inkscape:cy="389.49173"
     inkscape:current-layer="layer1"
     units="px"
     width="200px"
     inkscape:snap-global="false" />
  <defs
     id="defs2" />
  <g
     inkscape:label="Layer 1"
     inkscape:groupmode="layer"
     id="layer1">
    <g
       id="g311"
       transform="matrix(1.1031823,0,0,1.1031823,-7.8382863,-3.8619336)">
      <g
         id="g137"
         transform="matrix(0.15770659,0,0,0.15770659,-14.769565,-15.363032)">
        <path
           d="m 218.905,267.499 c -6.63433,31.55567 -13.26867,63.11133 -19.903,94.667 50.69667,-31.55567 101.39333,-63.11133 152.09,-94.667 -44.06233,0 -88.12467,0 -132.187,0 z"
           fill="@color/brand_icon_dark"
           id="path125"
           style="fill:#487092;fill-opacity:1" />
        <path
           d="M 218.905,267.499 H 351.092 L 218.905,173.62 Z"
           fill="#ffffff"
           id="path127" />
      </g>
      <g
         id="g8361"
         transform="matrix(0.22841469,0,0,0.22841469,6.5275708,6.0976097)">
        <g
           id="g505"
           transform="translate(-9.1483957,71.415351)">
          <rect
             style="color:#000000;overflow:visible;fill:#ffffff;stroke:none;stroke-width:0.264583;stroke-linecap:round;stroke-linejoin:round;stroke-opacity:0.998714;stop-color:#000000"
             id="rect367"
             width="98.806816"
             height="44.251129"
             x="81.239845"
             y="45.67662" />
          <path
             d="m 84.256235,48.454714 v 38.701283 h 2.782132 v 0.928223 h -3.84857 V 47.531562 h 3.8473 v 0.928222 z m 10.715132,12.268508 v 1.957891 h 0.05582 a 5.6568298,5.6568298 0 0 1 1.885617,-1.734711 c 0.735475,-0.409581 1.578736,-0.615011 2.527245,-0.615011 0.913011,0 1.746131,0.177522 2.500631,0.532587 0.75449,0.353795 1.32766,0.977678 1.71822,1.872932 0.42861,-0.634033 1.00938,-1.193248 1.74612,-1.677649 0.73548,-0.485671 1.60537,-0.72787 2.61222,-0.72787 0.76336,0 1.47095,0.09384 2.12273,0.278982 0.65178,0.187682 1.20973,0.485667 1.67638,0.896524 0.46412,0.409582 0.82804,0.945974 1.08926,1.607901 0.25996,0.661931 0.39056,1.458273 0.39056,2.392836 v 9.679129 h -3.96523 v -8.196762 c 0,-0.485667 -0.0192,-0.942169 -0.0558,-1.372043 a 2.9228857,2.9228857 0 0 0 -0.30688,-1.118435 1.8678571,1.8678571 0 0 0 -0.74054,-0.755762 c -0.32591,-0.185142 -0.76845,-0.278983 -1.32766,-0.278983 -0.55796,0 -1.00939,0.107788 -1.3543,0.320822 -0.34492,0.215576 -0.61501,0.494543 -0.81028,0.839453 a 3.3654397,3.3654397 0 0 0 -0.39056,1.175496 8.9702791,8.9702791 0 0 0 -0.099,1.328929 v 8.057275 h -3.9665 v -8.113067 c 0,-0.42861 -0.009,-0.853408 -0.0269,-1.273137 a 3.5822786,3.5822786 0 0 0 -0.23839,-1.161544 1.7892372,1.7892372 0 0 0 -0.69744,-0.853409 c -0.327144,-0.213035 -0.806487,-0.320822 -1.439253,-0.320822 a 2.9545873,2.9545873 0 0 0 -0.740541,0.126814 2.4600426,2.4600426 0 0 0 -0.893987,0.474236 c -0.2891,0.233308 -0.535122,0.56936 -0.740552,1.006841 -0.20417,0.43877 -0.306869,1.011917 -0.306869,1.720764 v 8.39331 H 91.228046 V 60.718151 Z m 20.872333,2.126545 a 4.756505,4.756505 0 0 1 1.56351,-1.483636 6.8094994,6.8094994 0 0 1 2.13669,-0.797611 12.146777,12.146777 0 0 1 2.38903,-0.237143 c 0.7266,0 1.46207,0.0507 2.20643,0.153462 0.74562,0.102709 1.42531,0.304335 2.04031,0.602329 0.61374,0.298009 1.1159,0.712653 1.509,1.243969 0.39056,0.532586 0.58585,1.236364 0.58585,2.112594 v 7.52469 c 0,0.65432 0.0379,1.278207 0.11157,1.874196 0.0736,0.597259 0.20417,1.044886 0.39055,1.344146 h -4.02102 a 5.6238604,5.6238604 0 0 1 -0.27898,-1.399942 c -0.63403,0.653051 -1.37839,1.110823 -2.23434,1.370774 a 8.9829596,8.9829596 0 0 1 -2.62615,0.393096 c -0.68983,0 -1.33147,-0.08497 -1.92746,-0.25363 a 4.4027154,4.4027154 0 0 1 -1.56479,-0.78239 3.6393414,3.6393414 0 0 1 -1.04742,-1.34288 c -0.25234,-0.540198 -0.3779,-1.184372 -0.3779,-1.929993 0,-0.820435 0.14455,-1.496313 0.43368,-2.028899 0.28785,-0.531322 0.6594,-0.954856 1.11718,-1.273138 0.45649,-0.317036 0.97766,-0.554144 1.56478,-0.712652 0.58584,-0.158494 1.17802,-0.284062 1.77402,-0.377903 0.596,-0.0926 1.18183,-0.167408 1.75881,-0.223195 0.57823,-0.05579 1.09053,-0.139467 1.53688,-0.252334 0.44765,-0.111574 0.80015,-0.275148 1.06137,-0.489472 0.2612,-0.214329 0.38169,-0.526246 0.36396,-0.938369 0,-0.427315 -0.0697,-0.768443 -0.21049,-1.019522 a 1.543233,1.543233 0 0 0 -0.55795,-0.588378 2.2026258,2.2026258 0 0 0 -0.81029,-0.278982 6.7105905,6.7105905 0 0 0 -0.99163,-0.06973 c -0.78239,0 -1.39613,0.167408 -1.84376,0.503419 -0.44634,0.334768 -0.70758,0.895253 -0.7824,1.677649 h -3.9665 c 0.0558,-0.932028 0.28785,-1.705547 0.69744,-2.320554 z m 7.83535,5.608644 a 6.4607821,6.4607821 0 0 1 -0.81028,0.209249 12.274852,12.274852 0 0 1 -0.90794,0.139467 c -0.31703,0.03786 -0.63404,0.08497 -0.94978,0.139466 a 7.121443,7.121443 0 0 0 -0.88004,0.224441 2.608406,2.608406 0 0 0 -0.75323,0.377903 c -0.21557,0.158494 -0.38676,0.360122 -0.51736,0.601059 -0.1306,0.243468 -0.19531,0.550339 -0.19531,0.923152 0,0.355042 0.0646,0.653051 0.19531,0.895254 0.1306,0.243468 0.30687,0.433689 0.53131,0.574431 0.2232,0.139468 0.48313,0.237142 0.7824,0.292929 0.29671,0.05578 0.60486,0.08368 0.92061,0.08368 0.7824,0 1.38726,-0.129354 1.81587,-0.391849 0.4286,-0.259955 0.74435,-0.573166 0.95104,-0.937098 0.20287,-0.362663 0.32969,-0.730405 0.37662,-1.103219 0.0455,-0.374068 0.0697,-0.672071 0.0697,-0.896518 v -1.483631 a 1.7752885,1.7752885 0 0 1 -0.62896,0.351255 z m 15.03923,-7.735189 v 2.657862 h -2.90514 v 7.160752 c 0,0.672073 0.11159,1.1197 0.33477,1.342881 0.2232,0.22444 0.67081,0.336015 1.34035,0.336015 0.22444,0 0.43747,-0.0086 0.6429,-0.02779 0.20417,-0.01917 0.40072,-0.04697 0.58712,-0.08368 v 3.07632 a 9.4977935,9.4977935 0 0 1 -1.11843,0.112868 27.47893,27.47893 0 0 1 -1.20086,0.02779 c -0.61374,0 -1.19705,-0.04313 -1.74612,-0.126814 a 4.0996484,4.0996484 0 0 1 -1.45193,-0.489471 2.586849,2.586849 0 0 1 -0.99162,-1.03474 c -0.24219,-0.447636 -0.36391,-1.034739 -0.36391,-1.762609 v -8.531533 h -2.40175 V 60.72321 h 2.40172 v -4.336776 h 3.96776 v 4.336776 h 2.90387 z m 5.66951,0 v 2.685761 h 0.0558 a 4.954323,4.954323 0 0 1 1.84377,-2.224183 5.3423504,5.3423504 0 0 1 1.31372,-0.630228 4.734948,4.734948 0 0 1 1.45192,-0.223195 c 0.26121,0 0.54907,0.04697 0.86609,0.139467 v 3.692597 a 7.4333866,7.4333866 0 0 0 -0.66953,-0.09763 7.0580396,7.0580396 0 0 0 -0.75451,-0.0417 c -0.7266,0 -1.34161,0.121734 -1.84376,0.363957 a 3.1955192,3.1955192 0 0 0 -1.21481,0.992894 3.9855227,3.9855227 0 0 0 -0.65685,1.46842 8.0141597,8.0141597 0 0 0 -0.1953,1.8184 v 6.517844 h -3.9665 V 60.729702 Z m 7.20767,-2.238129 v -3.274138 h 3.9665 v 3.274138 h -3.96523 z m 3.9665,2.238129 v 14.45592 h -3.96523 v -14.45592 h 3.9665 z m 2.06694,0 h 4.52573 l 2.54247,3.776291 2.51329,-3.776291 h 4.38623 l -4.74889,6.770192 5.33601,7.693339 h -4.52699 l -3.01545,-4.559956 -3.018,4.559956 h -4.44075 l 5.19526,-7.609649 z m 19.40137,26.42644 V 48.448373 h -2.78213 v -0.928222 h 3.84857 v 40.552657 h -3.84857 v -0.928213 z"
             id="path87"
             style="fill:#040404;stroke-width:1.26806" />
        </g>
        <g
           aria-label="+"
           id="text1763"
           style="font-size:28.5199px;line-height:1em;font-family:'Times New Roman';-inkscape-font-specification:'Times New Roman, ';letter-spacing:0px;word-spacing:0px;fill:#ffffff;stroke:#ffffff;stroke-width:0.712999px">
          <path
             d="m 90.12279,113.43757 v -6.94894 h -6.935014 v -1.14191 h 6.935014 v -6.921087 h 1.114059 v 6.921087 h 6.962866 v 1.14191 h -6.962866 v 6.94894 z"
             id="path8335" />
        </g>
      </g>
    </g>
  </g>
</svg>
